# xmcd
#
# Track frame offsets: 
#        150
#        14038
#        25767
#        34922
#        47063
#        59361
#        73503
#        86305
#        96034
#        109791
#        118091
#        128445
#        137559
#        149551
#        162471
#        173977
#        187262
#        199949
#        212408
#        224585
#        236156
#        246053
#        257665
#
# Disc length: 3564 seconds
#
# Revision: 3
# Processed by: cddbd v1.5.2PL0 Copyright (c) Steve Scherf et al.
# Submitted via: ExactAudioCopy v1.1
#
DISCID=590dea17
DTITLE=Maddox Brothers and Rose - 6 Classic Albums Plus_CD1
DYEAR=1961
DGENRE=Country
TTITLE0=Tramp on the Street
TTITLE1=Steal Away and Pray
TTITLE2=I'd Rather Have Jesus
TTITLE3=When God Dips His Love In My Heart
TTITLE4=Farther Along
TTITLE5=Uncloudy Day
TTITLE6=Gathering Flowers for the Master's Bouquet
TTITLE7=I'll Fly Away
TTITLE8=In the Land Where We'll Never Grow Old
TTITLE9=Dust on the Bible
TTITLE10=I'll Be No Stranger There
TTITLE11=He Set Me Free
TTITLE12=I'll Still Write Your Name in the Sand
TTITLE13=Brown Eyes
TTITLE14=Hangover Blues
TTITLE15=New Muleskinner Blues
TTITLE16=Careless Driver
TTITLE17=Mama Says It's Naughty
TTITLE18=Old Pal of Yesterdays
TTITLE19=Meanest Man in Town
TTITLE20=I Want To Live And Love
TTITLE21=Kiss Me Quick And Go
TTITLE22=Shimmy Shakin' Daddy
EXTD=
EXTT0=
EXTT1=
EXTT2=
EXTT3=
EXTT4=
EXTT5=
EXTT6=
EXTT7=
EXTT8=
EXTT9=
EXTT10=
EXTT11=
EXTT12=
EXTT13=
EXTT14=
EXTT15=
EXTT16=
EXTT17=
EXTT18=
EXTT19=
EXTT20=
EXTT21=
EXTT22=
PLAYORDER=
